<?xml version="1.0" encoding="utf-8" standalone="no"?>
<!DOCTYPE svg PUBLIC "-//W3C//DTD SVG 1.1//EN"
  "http://www.w3.org/Graphics/SVG/1.1/DTD/svg11.dtd">
<svg xmlns:xlink="http://www.w3.org/1999/xlink" width="576pt" height="576pt" viewBox="0 0 576 576" xmlns="http://www.w3.org/2000/svg" version="1.1">
 <metadata>
  <rdf:RDF xmlns:dc="http://purl.org/dc/elements/1.1/" xmlns:cc="http://creativecommons.org/ns#" xmlns:rdf="http://www.w3.org/1999/02/22-rdf-syntax-ns#">
   <cc:Work>
    <dc:type rdf:resource="http://purl.org/dc/dcmitype/StillImage"/>
    <dc:date>2024-09-24T17:24:50.765344</dc:date>
    <dc:format>image/svg+xml</dc:format>
    <dc:creator>
     <cc:Agent>
      <dc:title>Matplotlib v3.9.2, https://matplotlib.org/</dc:title>
     </cc:Agent>
    </dc:creator>
   </cc:Work>
  </rdf:RDF>
 </metadata>
 <defs>
  <style type="text/css">*{stroke-linejoin: round; stroke-linecap: butt}</style>
 </defs>
 <g id="figure_1">
  <g id="patch_1">
   <path d="M 0 576 
L 576 576 
L 576 0 
L 0 0 
z
" style="fill: #ffffff"/>
  </g>
  <g id="axes_1">
   <g id="patch_2">
    <path d="M 72 512.64 
L 518.4 512.64 
L 518.4 69.12 
L 72 69.12 
z
" style="fill: #ffffff"/>
   </g>
   <g id="matplotlib.axis_1">
    <g id="xtick_1">
     <g id="text_1">
      <!-- 0.0 -->
      <g style="fill: #262626" transform="translate(64.048438 527.238438) scale(0.1 -0.1)">
       <defs>
        <path id="DejaVuSans-30" d="M 2034 4250 
Q 1547 4250 1301 3770 
Q 1056 3291 1056 2328 
Q 1056 1369 1301 889 
Q 1547 409 2034 409 
Q 2525 409 2770 889 
Q 3016 1369 3016 2328 
Q 3016 3291 2770 3770 
Q 2525 4250 2034 4250 
z
M 2034 4750 
Q 2819 4750 3233 4129 
Q 3647 3509 3647 2328 
Q 3647 1150 3233 529 
Q 2819 -91 2034 -91 
Q 1250 -91 836 529 
Q 422 1150 422 2328 
Q 422 3509 836 4129 
Q 1250 4750 2034 4750 
z
" transform="scale(0.015625)"/>
        <path id="DejaVuSans-2e" d="M 684 794 
L 1344 794 
L 1344 0 
L 684 0 
L 684 794 
z
" transform="scale(0.015625)"/>
       </defs>
       <use xlink:href="#DejaVuSans-30"/>
       <use xlink:href="#DejaVuSans-2e" x="63.623047"/>
       <use xlink:href="#DejaVuSans-30" x="95.410156"/>
      </g>
     </g>
    </g>
    <g id="xtick_2">
     <g id="text_2">
      <!-- 0.2 -->
      <g style="fill: #262626" transform="translate(153.328438 527.238438) scale(0.1 -0.1)">
       <defs>
        <path id="DejaVuSans-32" d="M 1228 531 
L 3431 531 
L 3431 0 
L 469 0 
L 469 531 
Q 828 903 1448 1529 
Q 2069 2156 2228 2338 
Q 2531 2678 2651 2914 
Q 2772 3150 2772 3378 
Q 2772 3750 2511 3984 
Q 2250 4219 1831 4219 
Q 1534 4219 1204 4116 
Q 875 4013 500 3803 
L 500 4441 
Q 881 4594 1212 4672 
Q 1544 4750 1819 4750 
Q 2544 4750 2975 4387 
Q 3406 4025 3406 3419 
Q 3406 3131 3298 2873 
Q 3191 2616 2906 2266 
Q 2828 2175 2409 1742 
Q 1991 1309 1228 531 
z
" transform="scale(0.015625)"/>
       </defs>
       <use xlink:href="#DejaVuSans-30"/>
       <use xlink:href="#DejaVuSans-2e" x="63.623047"/>
       <use xlink:href="#DejaVuSans-32" x="95.410156"/>
      </g>
     </g>
    </g>
    <g id="xtick_3">
     <g id="text_3">
      <!-- 0.4 -->
      <g style="fill: #262626" transform="translate(242.608438 527.238438) scale(0.1 -0.1)">
       <defs>
        <path id="DejaVuSans-34" d="M 2419 4116 
L 825 1625 
L 2419 1625 
L 2419 4116 
z
M 2253 4666 
L 3047 4666 
L 3047 1625 
L 3713 1625 
L 3713 1100 
L 3047 1100 
L 3047 0 
L 2419 0 
L 2419 1100 
L 313 1100 
L 313 1709 
L 2253 4666 
z
" transform="scale(0.015625)"/>
       </defs>
       <use xlink:href="#DejaVuSans-30"/>
       <use xlink:href="#DejaVuSans-2e" x="63.623047"/>
       <use xlink:href="#DejaVuSans-34" x="95.410156"/>
      </g>
     </g>
    </g>
    <g id="xtick_4">
     <g id="text_4">
      <!-- 0.6 -->
      <g style="fill: #262626" transform="translate(331.888438 527.238438) scale(0.1 -0.1)">
       <defs>
        <path id="DejaVuSans-36" d="M 2113 2584 
Q 1688 2584 1439 2293 
Q 1191 2003 1191 1497 
Q 1191 994 1439 701 
Q 1688 409 2113 409 
Q 2538 409 2786 701 
Q 3034 994 3034 1497 
Q 3034 2003 2786 2293 
Q 2538 2584 2113 2584 
z
M 3366 4563 
L 3366 3988 
Q 3128 4100 2886 4159 
Q 2644 4219 2406 4219 
Q 1781 4219 1451 3797 
Q 1122 3375 1075 2522 
Q 1259 2794 1537 2939 
Q 1816 3084 2150 3084 
Q 2853 3084 3261 2657 
Q 3669 2231 3669 1497 
Q 3669 778 3244 343 
Q 2819 -91 2113 -91 
Q 1303 -91 875 529 
Q 447 1150 447 2328 
Q 447 3434 972 4092 
Q 1497 4750 2381 4750 
Q 2619 4750 2861 4703 
Q 3103 4656 3366 4563 
z
" transform="scale(0.015625)"/>
       </defs>
       <use xlink:href="#DejaVuSans-30"/>
       <use xlink:href="#DejaVuSans-2e" x="63.623047"/>
       <use xlink:href="#DejaVuSans-36" x="95.410156"/>
      </g>
     </g>
    </g>
    <g id="xtick_5">
     <g id="text_5">
      <!-- 0.8 -->
      <g style="fill: #262626" transform="translate(421.168437 527.238438) scale(0.1 -0.1)">
       <defs>
        <path id="DejaVuSans-38" d="M 2034 2216 
Q 1584 2216 1326 1975 
Q 1069 1734 1069 1313 
Q 1069 891 1326 650 
Q 1584 409 2034 409 
Q 2484 409 2743 651 
Q 3003 894 3003 1313 
Q 3003 1734 2745 1975 
Q 2488 2216 2034 2216 
z
M 1403 2484 
Q 997 2584 770 2862 
Q 544 3141 544 3541 
Q 544 4100 942 4425 
Q 1341 4750 2034 4750 
Q 2731 4750 3128 4425 
Q 3525 4100 3525 3541 
Q 3525 3141 3298 2862 
Q 3072 2584 2669 2484 
Q 3125 2378 3379 2068 
Q 3634 1759 3634 1313 
Q 3634 634 3220 271 
Q 2806 -91 2034 -91 
Q 1263 -91 848 271 
Q 434 634 434 1313 
Q 434 1759 690 2068 
Q 947 2378 1403 2484 
z
M 1172 3481 
Q 1172 3119 1398 2916 
Q 1625 2713 2034 2713 
Q 2441 2713 2670 2916 
Q 2900 3119 2900 3481 
Q 2900 3844 2670 4047 
Q 2441 4250 2034 4250 
Q 1625 4250 1398 4047 
Q 1172 3844 1172 3481 
z
" transform="scale(0.015625)"/>
       </defs>
       <use xlink:href="#DejaVuSans-30"/>
       <use xlink:href="#DejaVuSans-2e" x="63.623047"/>
       <use xlink:href="#DejaVuSans-38" x="95.410156"/>
      </g>
     </g>
    </g>
    <g id="xtick_6">
     <g id="text_6">
      <!-- 1.0 -->
      <g style="fill: #262626" transform="translate(510.448437 527.238438) scale(0.1 -0.1)">
       <defs>
        <path id="DejaVuSans-31" d="M 794 531 
L 1825 531 
L 1825 4091 
L 703 3866 
L 703 4441 
L 1819 4666 
L 2450 4666 
L 2450 531 
L 3481 531 
L 3481 0 
L 794 0 
L 794 531 
z
" transform="scale(0.015625)"/>
       </defs>
       <use xlink:href="#DejaVuSans-31"/>
       <use xlink:href="#DejaVuSans-2e" x="63.623047"/>
       <use xlink:href="#DejaVuSans-30" x="95.410156"/>
      </g>
     </g>
    </g>
    <g id="text_7">
     <!-- False Positive Rate -->
     <g style="fill: #262626" transform="translate(248.733594 540.916563) scale(0.1 -0.1)">
      <defs>
       <path id="DejaVuSans-46" d="M 628 4666 
L 3309 4666 
L 3309 4134 
L 1259 4134 
L 1259 2759 
L 3109 2759 
L 3109 2228 
L 1259 2228 
L 1259 0 
L 628 0 
L 628 4666 
z
" transform="scale(0.015625)"/>
       <path id="DejaVuSans-61" d="M 2194 1759 
Q 1497 1759 1228 1600 
Q 959 1441 959 1056 
Q 959 750 1161 570 
Q 1363 391 1709 391 
Q 2188 391 2477 730 
Q 2766 1069 2766 1631 
L 2766 1759 
L 2194 1759 
z
M 3341 1997 
L 3341 0 
L 2766 0 
L 2766 531 
Q 2569 213 2275 61 
Q 1981 -91 1556 -91 
Q 1019 -91 701 211 
Q 384 513 384 1019 
Q 384 1609 779 1909 
Q 1175 2209 1959 2209 
L 2766 2209 
L 2766 2266 
Q 2766 2663 2505 2880 
Q 2244 3097 1772 3097 
Q 1472 3097 1187 3025 
Q 903 2953 641 2809 
L 641 3341 
Q 956 3463 1253 3523 
Q 1550 3584 1831 3584 
Q 2591 3584 2966 3190 
Q 3341 2797 3341 1997 
z
" transform="scale(0.015625)"/>
       <path id="DejaVuSans-6c" d="M 603 4863 
L 1178 4863 
L 1178 0 
L 603 0 
L 603 4863 
z
" transform="scale(0.015625)"/>
       <path id="DejaVuSans-73" d="M 2834 3397 
L 2834 2853 
Q 2591 2978 2328 3040 
Q 2066 3103 1784 3103 
Q 1356 3103 1142 2972 
Q 928 2841 928 2578 
Q 928 2378 1081 2264 
Q 1234 2150 1697 2047 
L 1894 2003 
Q 2506 1872 2764 1633 
Q 3022 1394 3022 966 
Q 3022 478 2636 193 
Q 2250 -91 1575 -91 
Q 1294 -91 989 -36 
Q 684 19 347 128 
L 347 722 
Q 666 556 975 473 
Q 1284 391 1588 391 
Q 1994 391 2212 530 
Q 2431 669 2431 922 
Q 2431 1156 2273 1281 
Q 2116 1406 1581 1522 
L 1381 1569 
Q 847 1681 609 1914 
Q 372 2147 372 2553 
Q 372 3047 722 3315 
Q 1072 3584 1716 3584 
Q 2034 3584 2315 3537 
Q 2597 3491 2834 3397 
z
" transform="scale(0.015625)"/>
       <path id="DejaVuSans-65" d="M 3597 1894 
L 3597 1613 
L 953 1613 
Q 991 1019 1311 708 
Q 1631 397 2203 397 
Q 2534 397 2845 478 
Q 3156 559 3463 722 
L 3463 178 
Q 3153 47 2828 -22 
Q 2503 -91 2169 -91 
Q 1331 -91 842 396 
Q 353 884 353 1716 
Q 353 2575 817 3079 
Q 1281 3584 2069 3584 
Q 2775 3584 3186 3129 
Q 3597 2675 3597 1894 
z
M 3022 2063 
Q 3016 2534 2758 2815 
Q 2500 3097 2075 3097 
Q 1594 3097 1305 2825 
Q 1016 2553 972 2059 
L 3022 2063 
z
" transform="scale(0.015625)"/>
       <path id="DejaVuSans-20" transform="scale(0.015625)"/>
       <path id="DejaVuSans-50" d="M 1259 4147 
L 1259 2394 
L 2053 2394 
Q 2494 2394 2734 2622 
Q 2975 2850 2975 3272 
Q 2975 3691 2734 3919 
Q 2494 4147 2053 4147 
L 1259 4147 
z
M 628 4666 
L 2053 4666 
Q 2838 4666 3239 4311 
Q 3641 3956 3641 3272 
Q 3641 2581 3239 2228 
Q 2838 1875 2053 1875 
L 1259 1875 
L 1259 0 
L 628 0 
L 628 4666 
z
" transform="scale(0.015625)"/>
       <path id="DejaVuSans-6f" d="M 1959 3097 
Q 1497 3097 1228 2736 
Q 959 2375 959 1747 
Q 959 1119 1226 758 
Q 1494 397 1959 397 
Q 2419 397 2687 759 
Q 2956 1122 2956 1747 
Q 2956 2369 2687 2733 
Q 2419 3097 1959 3097 
z
M 1959 3584 
Q 2709 3584 3137 3096 
Q 3566 2609 3566 1747 
Q 3566 888 3137 398 
Q 2709 -91 1959 -91 
Q 1206 -91 779 398 
Q 353 888 353 1747 
Q 353 2609 779 3096 
Q 1206 3584 1959 3584 
z
" transform="scale(0.015625)"/>
       <path id="DejaVuSans-69" d="M 603 3500 
L 1178 3500 
L 1178 0 
L 603 0 
L 603 3500 
z
M 603 4863 
L 1178 4863 
L 1178 4134 
L 603 4134 
L 603 4863 
z
" transform="scale(0.015625)"/>
       <path id="DejaVuSans-74" d="M 1172 4494 
L 1172 3500 
L 2356 3500 
L 2356 3053 
L 1172 3053 
L 1172 1153 
Q 1172 725 1289 603 
Q 1406 481 1766 481 
L 2356 481 
L 2356 0 
L 1766 0 
Q 1100 0 847 248 
Q 594 497 594 1153 
L 594 3053 
L 172 3053 
L 172 3500 
L 594 3500 
L 594 4494 
L 1172 4494 
z
" transform="scale(0.015625)"/>
       <path id="DejaVuSans-76" d="M 191 3500 
L 800 3500 
L 1894 563 
L 2988 3500 
L 3597 3500 
L 2284 0 
L 1503 0 
L 191 3500 
z
" transform="scale(0.015625)"/>
       <path id="DejaVuSans-52" d="M 2841 2188 
Q 3044 2119 3236 1894 
Q 3428 1669 3622 1275 
L 4263 0 
L 3584 0 
L 2988 1197 
Q 2756 1666 2539 1819 
Q 2322 1972 1947 1972 
L 1259 1972 
L 1259 0 
L 628 0 
L 628 4666 
L 2053 4666 
Q 2853 4666 3247 4331 
Q 3641 3997 3641 3322 
Q 3641 2881 3436 2590 
Q 3231 2300 2841 2188 
z
M 1259 4147 
L 1259 2491 
L 2053 2491 
Q 2509 2491 2742 2702 
Q 2975 2913 2975 3322 
Q 2975 3731 2742 3939 
Q 2509 4147 2053 4147 
L 1259 4147 
z
" transform="scale(0.015625)"/>
      </defs>
      <use xlink:href="#DejaVuSans-46"/>
      <use xlink:href="#DejaVuSans-61" x="48.394531"/>
      <use xlink:href="#DejaVuSans-6c" x="109.673828"/>
      <use xlink:href="#DejaVuSans-73" x="137.457031"/>
      <use xlink:href="#DejaVuSans-65" x="189.556641"/>
      <use xlink:href="#DejaVuSans-20" x="251.080078"/>
      <use xlink:href="#DejaVuSans-50" x="282.867188"/>
      <use xlink:href="#DejaVuSans-6f" x="339.544922"/>
      <use xlink:href="#DejaVuSans-73" x="400.726562"/>
      <use xlink:href="#DejaVuSans-69" x="452.826172"/>
      <use xlink:href="#DejaVuSans-74" x="480.609375"/>
      <use xlink:href="#DejaVuSans-69" x="519.818359"/>
      <use xlink:href="#DejaVuSans-76" x="547.601562"/>
      <use xlink:href="#DejaVuSans-65" x="606.78125"/>
      <use xlink:href="#DejaVuSans-20" x="668.304688"/>
      <use xlink:href="#DejaVuSans-52" x="700.091797"/>
      <use xlink:href="#DejaVuSans-61" x="767.324219"/>
      <use xlink:href="#DejaVuSans-74" x="828.603516"/>
      <use xlink:href="#DejaVuSans-65" x="867.8125"/>
     </g>
    </g>
   </g>
   <g id="matplotlib.axis_2">
    <g id="ytick_1">
     <g id="text_8">
      <!-- 0.0 -->
      <g style="fill: #262626" transform="translate(49.096875 516.439219) scale(0.1 -0.1)">
       <use xlink:href="#DejaVuSans-30"/>
       <use xlink:href="#DejaVuSans-2e" x="63.623047"/>
       <use xlink:href="#DejaVuSans-30" x="95.410156"/>
      </g>
     </g>
    </g>
    <g id="ytick_2">
     <g id="text_9">
      <!-- 0.2 -->
      <g style="fill: #262626" transform="translate(49.096875 427.735219) scale(0.1 -0.1)">
       <use xlink:href="#DejaVuSans-30"/>
       <use xlink:href="#DejaVuSans-2e" x="63.623047"/>
       <use xlink:href="#DejaVuSans-32" x="95.410156"/>
      </g>
     </g>
    </g>
    <g id="ytick_3">
     <g id="text_10">
      <!-- 0.4 -->
      <g style="fill: #262626" transform="translate(49.096875 339.031219) scale(0.1 -0.1)">
       <use xlink:href="#DejaVuSans-30"/>
       <use xlink:href="#DejaVuSans-2e" x="63.623047"/>
       <use xlink:href="#DejaVuSans-34" x="95.410156"/>
      </g>
     </g>
    </g>
    <g id="ytick_4">
     <g id="text_11">
      <!-- 0.6 -->
      <g style="fill: #262626" transform="translate(49.096875 250.327219) scale(0.1 -0.1)">
       <use xlink:href="#DejaVuSans-30"/>
       <use xlink:href="#DejaVuSans-2e" x="63.623047"/>
       <use xlink:href="#DejaVuSans-36" x="95.410156"/>
      </g>
     </g>
    </g>
    <g id="ytick_5">
     <g id="text_12">
      <!-- 0.8 -->
      <g style="fill: #262626" transform="translate(49.096875 161.623219) scale(0.1 -0.1)">
       <use xlink:href="#DejaVuSans-30"/>
       <use xlink:href="#DejaVuSans-2e" x="63.623047"/>
       <use xlink:href="#DejaVuSans-38" x="95.410156"/>
      </g>
     </g>
    </g>
    <g id="ytick_6">
     <g id="text_13">
      <!-- 1.0 -->
      <g style="fill: #262626" transform="translate(49.096875 72.919219) scale(0.1 -0.1)">
       <use xlink:href="#DejaVuSans-31"/>
       <use xlink:href="#DejaVuSans-2e" x="63.623047"/>
       <use xlink:href="#DejaVuSans-30" x="95.410156"/>
      </g>
     </g>
    </g>
    <g id="text_14">
     <!-- True Positive Rate -->
     <g style="fill: #262626" transform="translate(43.017187 335.409688) rotate(-90) scale(0.1 -0.1)">
      <defs>
       <path id="DejaVuSans-54" d="M -19 4666 
L 3928 4666 
L 3928 4134 
L 2272 4134 
L 2272 0 
L 1638 0 
L 1638 4134 
L -19 4134 
L -19 4666 
z
" transform="scale(0.015625)"/>
       <path id="DejaVuSans-72" d="M 2631 2963 
Q 2534 3019 2420 3045 
Q 2306 3072 2169 3072 
Q 1681 3072 1420 2755 
Q 1159 2438 1159 1844 
L 1159 0 
L 581 0 
L 581 3500 
L 1159 3500 
L 1159 2956 
Q 1341 3275 1631 3429 
Q 1922 3584 2338 3584 
Q 2397 3584 2469 3576 
Q 2541 3569 2628 3553 
L 2631 2963 
z
" transform="scale(0.015625)"/>
       <path id="DejaVuSans-75" d="M 544 1381 
L 544 3500 
L 1119 3500 
L 1119 1403 
Q 1119 906 1312 657 
Q 1506 409 1894 409 
Q 2359 409 2629 706 
Q 2900 1003 2900 1516 
L 2900 3500 
L 3475 3500 
L 3475 0 
L 2900 0 
L 2900 538 
Q 2691 219 2414 64 
Q 2138 -91 1772 -91 
Q 1169 -91 856 284 
Q 544 659 544 1381 
z
M 1991 3584 
L 1991 3584 
z
" transform="scale(0.015625)"/>
      </defs>
      <use xlink:href="#DejaVuSans-54"/>
      <use xlink:href="#DejaVuSans-72" x="46.333984"/>
      <use xlink:href="#DejaVuSans-75" x="87.447266"/>
      <use xlink:href="#DejaVuSans-65" x="150.826172"/>
      <use xlink:href="#DejaVuSans-20" x="212.349609"/>
      <use xlink:href="#DejaVuSans-50" x="244.136719"/>
      <use xlink:href="#DejaVuSans-6f" x="300.814453"/>
      <use xlink:href="#DejaVuSans-73" x="361.996094"/>
      <use xlink:href="#DejaVuSans-69" x="414.095703"/>
      <use xlink:href="#DejaVuSans-74" x="441.878906"/>
      <use xlink:href="#DejaVuSans-69" x="481.087891"/>
      <use xlink:href="#DejaVuSans-76" x="508.871094"/>
      <use xlink:href="#DejaVuSans-65" x="568.050781"/>
      <use xlink:href="#DejaVuSans-20" x="629.574219"/>
      <use xlink:href="#DejaVuSans-52" x="661.361328"/>
      <use xlink:href="#DejaVuSans-61" x="728.59375"/>
      <use xlink:href="#DejaVuSans-74" x="789.873047"/>
      <use xlink:href="#DejaVuSans-65" x="829.082031"/>
     </g>
    </g>
   </g>
   <g id="line2d_1">
    <path d="M 72 512.64 
L 72 509.494468 
L 73.595425 509.494468 
L 73.595425 503.203404 
L 77.105361 503.203404 
L 77.105361 490.621277 
L 77.424446 490.621277 
L 77.424446 484.330213 
L 78.381701 484.330213 
L 78.381701 478.039149 
L 78.700786 478.039149 
L 78.700786 474.893617 
L 79.019871 474.893617 
L 79.019871 471.748085 
L 81.891637 471.748085 
L 81.891637 468.602553 
L 82.210722 468.602553 
L 82.210722 465.457021 
L 82.529807 465.457021 
L 82.529807 459.165957 
L 83.167977 459.165957 
L 83.167977 456.020426 
L 83.806147 456.020426 
L 83.806147 452.874894 
L 84.444317 452.874894 
L 84.444317 449.729362 
L 85.401573 449.729362 
L 85.401573 446.58383 
L 87.316083 446.58383 
L 87.316083 440.292766 
L 88.592423 440.292766 
L 88.592423 437.147234 
L 89.868763 437.147234 
L 89.868763 434.001702 
L 91.464189 434.001702 
L 91.464189 430.85617 
L 91.783274 430.85617 
L 91.783274 427.710638 
L 92.740529 427.710638 
L 92.740529 424.565106 
L 93.059614 424.565106 
L 93.059614 421.419574 
L 94.016869 421.419574 
L 94.016869 411.982979 
L 94.335954 411.982979 
L 94.335954 405.691915 
L 94.655039 405.691915 
L 94.655039 402.546383 
L 95.612294 402.546383 
L 95.612294 396.255319 
L 97.20772 396.255319 
L 97.20772 393.109787 
L 99.12223 393.109787 
L 99.12223 389.964255 
L 100.079485 389.964255 
L 100.079485 383.673191 
L 100.717655 383.673191 
L 100.717655 380.52766 
L 102.951251 380.52766 
L 102.951251 377.382128 
L 103.589421 377.382128 
L 103.589421 367.945532 
L 103.908506 367.945532 
L 103.908506 364.8 
L 104.546676 364.8 
L 104.546676 358.508936 
L 106.142102 358.508936 
L 106.142102 355.363404 
L 106.461187 355.363404 
L 106.461187 352.217872 
L 107.099357 352.217872 
L 107.099357 345.926809 
L 108.375697 345.926809 
L 108.375697 342.781277 
L 109.013867 342.781277 
L 109.013867 336.490213 
L 113.481058 336.490213 
L 113.481058 333.344681 
L 114.119228 333.344681 
L 114.119228 330.199149 
L 115.714653 330.199149 
L 115.714653 327.053617 
L 116.990994 327.053617 
L 116.990994 317.617021 
L 117.310079 317.617021 
L 117.310079 314.471489 
L 117.629164 314.471489 
L 117.629164 311.325957 
L 120.500929 311.325957 
L 120.500929 305.034894 
L 123.69178 305.034894 
L 123.69178 301.889362 
L 128.158971 301.889362 
L 128.158971 298.74383 
L 128.478056 298.74383 
L 128.478056 295.598298 
L 129.435311 295.598298 
L 129.435311 292.452766 
L 132.307076 292.452766 
L 132.307076 286.161702 
L 133.902502 286.161702 
L 133.902502 283.01617 
L 134.859757 283.01617 
L 134.859757 279.870638 
L 135.497927 279.870638 
L 135.497927 273.579574 
L 137.412437 273.579574 
L 137.412437 270.434043 
L 140.603288 270.434043 
L 140.603288 267.288511 
L 145.708649 267.288511 
L 145.708649 264.142979 
L 146.027734 264.142979 
L 146.027734 260.997447 
L 152.409435 260.997447 
L 152.409435 257.851915 
L 152.72852 257.851915 
L 152.72852 254.706383 
L 153.685776 254.706383 
L 153.685776 251.560851 
L 159.110222 251.560851 
L 159.110222 248.415319 
L 161.024732 248.415319 
L 161.024732 245.269787 
L 161.981987 245.269787 
L 161.981987 242.124255 
L 162.939242 242.124255 
L 162.939242 238.978723 
L 164.215583 238.978723 
L 164.215583 235.833191 
L 166.768263 235.833191 
L 166.768263 232.68766 
L 170.278199 232.68766 
L 170.278199 229.542128 
L 170.597284 229.542128 
L 170.597284 223.251064 
L 171.235454 223.251064 
L 171.235454 220.105532 
L 173.149964 220.105532 
L 173.149964 213.814468 
L 173.788134 213.814468 
L 173.788134 210.668936 
L 174.426305 210.668936 
L 174.426305 207.523404 
L 179.850751 207.523404 
L 179.850751 204.377872 
L 186.870622 204.377872 
L 186.870622 201.23234 
L 190.061472 201.23234 
L 190.061472 198.086809 
L 191.018728 198.086809 
L 191.018728 194.941277 
L 197.400429 194.941277 
L 197.400429 191.795745 
L 198.038599 191.795745 
L 198.038599 188.650213 
L 203.463045 188.650213 
L 203.463045 185.504681 
L 206.653896 185.504681 
L 206.653896 182.359149 
L 210.482916 182.359149 
L 210.482916 179.213617 
L 211.440172 179.213617 
L 211.440172 172.922553 
L 212.078342 172.922553 
L 212.078342 169.777021 
L 213.992852 169.777021 
L 213.992852 166.631489 
L 220.374553 166.631489 
L 220.374553 163.485957 
L 221.969979 163.485957 
L 221.969979 160.340426 
L 224.522659 160.340426 
L 224.522659 157.194894 
L 225.160829 157.194894 
L 225.160829 154.049362 
L 225.798999 154.049362 
L 225.798999 150.90383 
L 243.029593 150.90383 
L 243.029593 144.612766 
L 243.986848 144.612766 
L 243.986848 138.321702 
L 249.411294 138.321702 
L 249.411294 135.17617 
L 258.02659 135.17617 
L 258.02659 132.030638 
L 261.217441 132.030638 
L 261.217441 125.739574 
L 278.767119 125.739574 
L 278.767119 122.594043 
L 279.724375 122.594043 
L 279.724375 116.302979 
L 280.04346 116.302979 
L 280.04346 113.157447 
L 288.977841 113.157447 
L 288.977841 110.011915 
L 292.168692 110.011915 
L 292.168692 106.866383 
L 294.083202 106.866383 
L 294.083202 103.720851 
L 296.635883 103.720851 
L 296.635883 100.575319 
L 304.613009 100.575319 
L 304.613009 97.429787 
L 309.71837 97.429787 
L 309.71837 91.138723 
L 317.057327 91.138723 
L 317.057327 87.993191 
L 336.20243 87.993191 
L 336.20243 84.84766 
L 343.222302 84.84766 
L 343.222302 81.702128 
L 346.732237 81.702128 
L 346.732237 78.556596 
L 375.449893 78.556596 
L 375.449893 75.411064 
L 397.785847 75.411064 
L 397.785847 72.265532 
L 481.386133 72.265532 
L 481.386133 69.12 
L 518.4 69.12 
L 518.4 69.12 
" clip-path="url(#p539b1b50b3)" style="fill: none; stroke: #1f77b4; stroke-width: 1.5; stroke-linecap: round"/>
   </g>
   <g id="line2d_2">
    <path d="M 72 512.64 
L 72 506.348936 
L 72.63817 506.348936 
L 72.63817 503.203404 
L 72.957255 503.203404 
L 72.957255 496.91234 
L 74.233595 496.91234 
L 74.233595 487.475745 
L 76.786276 487.475745 
L 76.786276 481.184681 
L 77.105361 481.184681 
L 77.105361 478.039149 
L 77.424446 478.039149 
L 77.424446 471.748085 
L 77.743531 471.748085 
L 77.743531 468.602553 
L 78.381701 468.602553 
L 78.381701 459.165957 
L 79.338956 459.165957 
L 79.338956 456.020426 
L 79.977127 456.020426 
L 79.977127 446.58383 
L 80.296212 446.58383 
L 80.296212 440.292766 
L 80.615297 440.292766 
L 80.615297 427.710638 
L 80.934382 427.710638 
L 80.934382 421.419574 
L 81.253467 421.419574 
L 81.253467 418.274043 
L 82.529807 418.274043 
L 82.529807 415.128511 
L 83.487062 415.128511 
L 83.487062 411.982979 
L 83.806147 411.982979 
L 83.806147 408.837447 
L 84.444317 408.837447 
L 84.444317 402.546383 
L 86.039743 402.546383 
L 86.039743 399.400851 
L 86.358828 399.400851 
L 86.358828 396.255319 
L 88.592423 396.255319 
L 88.592423 393.109787 
L 89.549678 393.109787 
L 89.549678 389.964255 
L 91.783274 389.964255 
L 91.783274 386.818723 
L 92.421444 386.818723 
L 92.421444 383.673191 
L 92.740529 383.673191 
L 92.740529 380.52766 
L 94.335954 380.52766 
L 94.335954 377.382128 
L 97.20772 377.382128 
L 97.20772 371.091064 
L 97.526805 371.091064 
L 97.526805 367.945532 
L 98.164975 367.945532 
L 98.164975 361.654468 
L 100.39857 361.654468 
L 100.39857 358.508936 
L 101.355826 358.508936 
L 101.355826 355.363404 
L 101.993996 355.363404 
L 101.993996 352.217872 
L 102.313081 352.217872 
L 102.313081 345.926809 
L 106.142102 345.926809 
L 106.142102 342.781277 
L 106.780272 342.781277 
L 106.780272 339.635745 
L 107.099357 339.635745 
L 107.099357 330.199149 
L 107.418442 330.199149 
L 107.418442 323.908085 
L 107.737527 323.908085 
L 107.737527 320.762553 
L 112.204718 320.762553 
L 112.204718 317.617021 
L 112.523803 317.617021 
L 112.523803 311.325957 
L 113.161973 311.325957 
L 113.161973 308.180426 
L 113.481058 308.180426 
L 113.481058 305.034894 
L 114.119228 305.034894 
L 114.119228 295.598298 
L 115.714653 295.598298 
L 115.714653 292.452766 
L 117.629164 292.452766 
L 117.629164 286.161702 
L 119.224589 286.161702 
L 119.224589 283.01617 
L 120.181844 283.01617 
L 120.181844 279.870638 
L 123.05361 279.870638 
L 123.05361 276.725106 
L 123.69178 276.725106 
L 123.69178 273.579574 
L 124.010865 273.579574 
L 124.010865 270.434043 
L 124.649035 270.434043 
L 124.649035 267.288511 
L 125.287205 267.288511 
L 125.287205 260.997447 
L 125.60629 260.997447 
L 125.60629 257.851915 
L 126.24446 257.851915 
L 126.24446 254.706383 
L 129.116226 254.706383 
L 129.116226 251.560851 
L 130.711651 251.560851 
L 130.711651 245.269787 
L 131.030736 245.269787 
L 131.030736 242.124255 
L 133.264332 242.124255 
L 133.264332 238.978723 
L 137.731523 238.978723 
L 137.731523 235.833191 
L 139.646033 235.833191 
L 139.646033 232.68766 
L 140.922373 232.68766 
L 140.922373 226.396596 
L 141.560543 226.396596 
L 141.560543 223.251064 
L 144.113224 223.251064 
L 144.113224 220.105532 
L 146.665904 220.105532 
L 146.665904 213.814468 
L 148.8995 213.814468 
L 148.8995 210.668936 
L 149.53767 210.668936 
L 149.53767 204.377872 
L 152.409435 204.377872 
L 152.409435 201.23234 
L 154.962116 201.23234 
L 154.962116 198.086809 
L 155.281201 198.086809 
L 155.281201 194.941277 
L 161.343817 194.941277 
L 161.343817 191.795745 
L 164.534668 191.795745 
L 164.534668 188.650213 
L 169.320944 188.650213 
L 169.320944 179.213617 
L 173.788134 179.213617 
L 173.788134 176.068085 
L 175.38356 176.068085 
L 175.38356 172.922553 
L 186.870622 172.922553 
L 186.870622 169.777021 
L 189.742387 169.777021 
L 189.742387 166.631489 
L 195.805004 166.631489 
L 195.805004 163.485957 
L 199.953109 163.485957 
L 199.953109 160.340426 
L 202.186705 160.340426 
L 202.186705 157.194894 
L 202.824875 157.194894 
L 202.824875 154.049362 
L 205.69664 154.049362 
L 205.69664 150.90383 
L 207.292066 150.90383 
L 207.292066 147.758298 
L 211.121086 147.758298 
L 211.121086 144.612766 
L 216.545533 144.612766 
L 216.545533 141.467234 
L 224.841744 141.467234 
L 224.841744 138.321702 
L 235.052466 138.321702 
L 235.052466 135.17617 
L 247.177698 135.17617 
L 247.177698 132.030638 
L 248.454039 132.030638 
L 248.454039 128.885106 
L 252.921229 128.885106 
L 252.921229 125.739574 
L 258.664761 125.739574 
L 258.664761 122.594043 
L 269.194568 122.594043 
L 269.194568 119.448511 
L 271.428163 119.448511 
L 271.428163 116.302979 
L 272.385418 116.302979 
L 272.385418 113.157447 
L 286.106076 113.157447 
L 286.106076 110.011915 
L 289.616011 110.011915 
L 289.616011 106.866383 
L 302.379414 106.866383 
L 302.379414 103.720851 
L 304.613009 103.720851 
L 304.613009 100.575319 
L 310.675625 100.575319 
L 310.675625 97.429787 
L 312.271051 97.429787 
L 312.271051 94.284255 
L 325.034453 94.284255 
L 325.034453 91.138723 
L 333.64975 91.138723 
L 333.64975 87.993191 
L 355.985704 87.993191 
L 355.985704 84.84766 
L 357.262044 84.84766 
L 357.262044 81.702128 
L 365.239171 81.702128 
L 365.239171 78.556596 
L 410.868335 78.556596 
L 410.868335 75.411064 
L 502.445747 75.411064 
L 502.445747 72.265532 
L 506.593853 72.265532 
L 506.593853 69.12 
L 518.4 69.12 
L 518.4 69.12 
" clip-path="url(#p539b1b50b3)" style="fill: none; stroke: #ff7f0e; stroke-width: 1.5; stroke-linecap: round"/>
   </g>
   <g id="line2d_3">
    <path d="M 72 512.64 
L 72 506.348936 
L 72.957255 506.348936 
L 72.957255 500.057872 
L 73.27634 500.057872 
L 73.27634 496.91234 
L 73.595425 496.91234 
L 73.595425 493.766809 
L 74.233595 493.766809 
L 74.233595 487.475745 
L 75.509936 487.475745 
L 75.509936 484.330213 
L 75.829021 484.330213 
L 75.829021 481.184681 
L 76.148106 481.184681 
L 76.148106 478.039149 
L 76.786276 478.039149 
L 76.786276 474.893617 
L 77.105361 474.893617 
L 77.105361 468.602553 
L 77.424446 468.602553 
L 77.424446 465.457021 
L 79.658041 465.457021 
L 79.658041 459.165957 
L 80.934382 459.165957 
L 80.934382 456.020426 
L 81.891637 456.020426 
L 81.891637 449.729362 
L 82.529807 449.729362 
L 82.529807 440.292766 
L 82.848892 440.292766 
L 82.848892 437.147234 
L 83.167977 437.147234 
L 83.167977 434.001702 
L 83.487062 434.001702 
L 83.487062 430.85617 
L 83.806147 430.85617 
L 83.806147 427.710638 
L 84.125232 427.710638 
L 84.125232 415.128511 
L 84.444317 415.128511 
L 84.444317 411.982979 
L 84.763402 411.982979 
L 84.763402 408.837447 
L 85.401573 408.837447 
L 85.401573 405.691915 
L 87.635168 405.691915 
L 87.635168 399.400851 
L 88.592423 399.400851 
L 88.592423 396.255319 
L 89.868763 396.255319 
L 89.868763 393.109787 
L 91.464189 393.109787 
L 91.464189 389.964255 
L 92.102359 389.964255 
L 92.102359 383.673191 
L 93.378699 383.673191 
L 93.378699 380.52766 
L 93.697784 380.52766 
L 93.697784 377.382128 
L 94.655039 377.382128 
L 94.655039 371.091064 
L 96.888635 371.091064 
L 96.888635 367.945532 
L 98.803145 367.945532 
L 98.803145 361.654468 
L 101.674911 361.654468 
L 101.674911 358.508936 
L 103.589421 358.508936 
L 103.589421 355.363404 
L 104.227591 355.363404 
L 104.227591 352.217872 
L 104.546676 352.217872 
L 104.546676 349.07234 
L 104.865761 349.07234 
L 104.865761 345.926809 
L 105.503931 345.926809 
L 105.503931 342.781277 
L 105.823016 342.781277 
L 105.823016 333.344681 
L 106.142102 333.344681 
L 106.142102 323.908085 
L 107.418442 323.908085 
L 107.418442 320.762553 
L 108.056612 320.762553 
L 108.056612 317.617021 
L 110.928377 317.617021 
L 110.928377 311.325957 
L 112.204718 311.325957 
L 112.204718 308.180426 
L 112.523803 308.180426 
L 112.523803 301.889362 
L 115.714653 301.889362 
L 115.714653 292.452766 
L 116.352823 292.452766 
L 116.352823 289.307234 
L 116.990994 289.307234 
L 116.990994 286.161702 
L 117.948249 286.161702 
L 117.948249 283.01617 
L 118.267334 283.01617 
L 118.267334 279.870638 
L 118.586419 279.870638 
L 118.586419 276.725106 
L 120.820014 276.725106 
L 120.820014 273.579574 
L 122.41544 273.579574 
L 122.41544 270.434043 
L 122.734525 270.434043 
L 122.734525 267.288511 
L 123.69178 267.288511 
L 123.69178 264.142979 
L 124.32995 264.142979 
L 124.32995 260.997447 
L 125.925375 260.997447 
L 125.925375 257.851915 
L 126.24446 257.851915 
L 126.24446 254.706383 
L 127.201716 254.706383 
L 127.201716 251.560851 
L 129.435311 251.560851 
L 129.435311 248.415319 
L 131.668906 248.415319 
L 131.668906 245.269787 
L 133.264332 245.269787 
L 133.264332 242.124255 
L 133.583417 242.124255 
L 133.583417 238.978723 
L 137.093352 238.978723 
L 137.093352 235.833191 
L 139.646033 235.833191 
L 139.646033 229.542128 
L 139.965118 229.542128 
L 139.965118 226.396596 
L 142.198713 226.396596 
L 142.198713 223.251064 
L 142.517798 223.251064 
L 142.517798 216.96 
L 145.389564 216.96 
L 145.389564 213.814468 
L 149.53767 213.814468 
L 149.53767 210.668936 
L 150.17584 210.668936 
L 150.17584 207.523404 
L 155.919371 207.523404 
L 155.919371 204.377872 
L 157.514796 204.377872 
L 157.514796 201.23234 
L 159.110222 201.23234 
L 159.110222 198.086809 
L 161.024732 198.086809 
L 161.024732 194.941277 
L 161.981987 194.941277 
L 161.981987 191.795745 
L 163.258327 191.795745 
L 163.258327 188.650213 
L 163.896497 188.650213 
L 163.896497 182.359149 
L 165.491923 182.359149 
L 165.491923 179.213617 
L 167.725518 179.213617 
L 167.725518 176.068085 
L 180.808006 176.068085 
L 180.808006 172.922553 
L 185.913367 172.922553 
L 185.913367 169.777021 
L 189.423302 169.777021 
L 189.423302 166.631489 
L 195.485919 166.631489 
L 195.485919 163.485957 
L 198.357684 163.485957 
L 198.357684 160.340426 
L 202.50579 160.340426 
L 202.50579 157.194894 
L 204.739385 157.194894 
L 204.739385 154.049362 
L 206.015726 154.049362 
L 206.015726 150.90383 
L 206.653896 150.90383 
L 206.653896 147.758298 
L 207.930236 147.758298 
L 207.930236 144.612766 
L 220.693638 144.612766 
L 220.693638 141.467234 
L 228.670765 141.467234 
L 228.670765 138.321702 
L 233.137956 138.321702 
L 233.137956 135.17617 
L 237.605147 135.17617 
L 237.605147 132.030638 
L 239.200572 132.030638 
L 239.200572 128.885106 
L 240.476912 128.885106 
L 240.476912 125.739574 
L 245.263188 125.739574 
L 245.263188 122.594043 
L 249.092209 122.594043 
L 249.092209 119.448511 
L 266.322802 119.448511 
L 266.322802 113.157447 
L 270.151823 113.157447 
L 270.151823 110.011915 
L 277.171694 110.011915 
L 277.171694 106.866383 
L 310.35654 106.866383 
L 310.35654 103.720851 
L 310.675625 103.720851 
L 310.675625 100.575319 
L 313.228306 100.575319 
L 313.228306 97.429787 
L 318.971837 97.429787 
L 318.971837 94.284255 
L 324.715368 94.284255 
L 324.715368 91.138723 
L 338.436026 91.138723 
L 338.436026 87.993191 
L 342.265046 87.993191 
L 342.265046 84.84766 
L 352.475768 84.84766 
L 352.475768 81.702128 
L 370.982702 81.702128 
L 370.982702 78.556596 
L 398.424017 78.556596 
L 398.424017 75.411064 
L 489.682345 75.411064 
L 489.682345 72.265532 
L 498.935811 72.265532 
L 498.935811 69.12 
L 518.4 69.12 
L 518.4 69.12 
" clip-path="url(#p539b1b50b3)" style="fill: none; stroke: #2ca02c; stroke-width: 1.5; stroke-linecap: round"/>
   </g>
   <g id="line2d_4">
    <path d="M 72 512.64 
L 72 509.494468 
L 72.957255 509.494468 
L 72.957255 503.203404 
L 73.27634 503.203404 
L 73.27634 493.766809 
L 73.595425 493.766809 
L 73.595425 487.475745 
L 73.91451 487.475745 
L 73.91451 484.330213 
L 74.233595 484.330213 
L 74.233595 481.184681 
L 75.190851 481.184681 
L 75.190851 478.039149 
L 75.829021 478.039149 
L 75.829021 474.893617 
L 76.786276 474.893617 
L 76.786276 471.748085 
L 77.105361 471.748085 
L 77.105361 468.602553 
L 77.424446 468.602553 
L 77.424446 465.457021 
L 78.700786 465.457021 
L 78.700786 462.311489 
L 79.658041 462.311489 
L 79.658041 459.165957 
L 79.977127 459.165957 
L 79.977127 456.020426 
L 80.296212 456.020426 
L 80.296212 452.874894 
L 82.210722 452.874894 
L 82.210722 449.729362 
L 83.167977 449.729362 
L 83.167977 446.58383 
L 83.806147 446.58383 
L 83.806147 443.438298 
L 85.720658 443.438298 
L 85.720658 440.292766 
L 86.358828 440.292766 
L 86.358828 434.001702 
L 87.954253 434.001702 
L 87.954253 430.85617 
L 88.273338 430.85617 
L 88.273338 421.419574 
L 88.592423 421.419574 
L 88.592423 418.274043 
L 89.230593 418.274043 
L 89.230593 415.128511 
L 90.187848 415.128511 
L 90.187848 411.982979 
L 90.506934 411.982979 
L 90.506934 408.837447 
L 90.826019 408.837447 
L 90.826019 402.546383 
L 91.145104 402.546383 
L 91.145104 399.400851 
L 92.421444 399.400851 
L 92.421444 396.255319 
L 92.740529 396.255319 
L 92.740529 393.109787 
L 96.250465 393.109787 
L 96.250465 383.673191 
L 97.20772 383.673191 
L 97.20772 377.382128 
L 98.164975 377.382128 
L 98.164975 374.236596 
L 98.48406 374.236596 
L 98.48406 371.091064 
L 100.079485 371.091064 
L 100.079485 361.654468 
L 100.39857 361.654468 
L 100.39857 358.508936 
L 101.355826 358.508936 
L 101.355826 355.363404 
L 103.270336 355.363404 
L 103.270336 352.217872 
L 104.865761 352.217872 
L 104.865761 349.07234 
L 105.823016 349.07234 
L 105.823016 345.926809 
L 106.780272 345.926809 
L 106.780272 342.781277 
L 107.099357 342.781277 
L 107.099357 339.635745 
L 107.737527 339.635745 
L 107.737527 336.490213 
L 108.694782 336.490213 
L 108.694782 333.344681 
L 109.971122 333.344681 
L 109.971122 330.199149 
L 110.609292 330.199149 
L 110.609292 323.908085 
L 111.566548 323.908085 
L 111.566548 320.762553 
L 114.438313 320.762553 
L 114.438313 317.617021 
L 115.076483 317.617021 
L 115.076483 314.471489 
L 116.671909 314.471489 
L 116.671909 311.325957 
L 118.267334 311.325957 
L 118.267334 305.034894 
L 120.500929 305.034894 
L 120.500929 301.889362 
L 122.734525 301.889362 
L 122.734525 298.74383 
L 124.96812 298.74383 
L 124.96812 295.598298 
L 125.60629 295.598298 
L 125.60629 292.452766 
L 125.925375 292.452766 
L 125.925375 289.307234 
L 126.88263 289.307234 
L 126.88263 286.161702 
L 127.201716 286.161702 
L 127.201716 283.01617 
L 127.520801 283.01617 
L 127.520801 279.870638 
L 128.478056 279.870638 
L 128.478056 276.725106 
L 129.435311 276.725106 
L 129.435311 273.579574 
L 131.349821 273.579574 
L 131.349821 270.434043 
L 131.987991 270.434043 
L 131.987991 267.288511 
L 132.307076 267.288511 
L 132.307076 260.997447 
L 132.626162 260.997447 
L 132.626162 257.851915 
L 135.497927 257.851915 
L 135.497927 254.706383 
L 135.817012 254.706383 
L 135.817012 251.560851 
L 137.412437 251.560851 
L 137.412437 248.415319 
L 138.688778 248.415319 
L 138.688778 245.269787 
L 140.284203 245.269787 
L 140.284203 242.124255 
L 143.475054 242.124255 
L 143.475054 232.68766 
L 144.113224 232.68766 
L 144.113224 229.542128 
L 144.751394 229.542128 
L 144.751394 226.396596 
L 145.389564 226.396596 
L 145.389564 223.251064 
L 147.942244 223.251064 
L 147.942244 213.814468 
L 149.53767 213.814468 
L 149.53767 210.668936 
L 154.004861 210.668936 
L 154.004861 207.523404 
L 154.962116 207.523404 
L 154.962116 201.23234 
L 155.281201 201.23234 
L 155.281201 198.086809 
L 160.386562 198.086809 
L 160.386562 194.941277 
L 162.939242 194.941277 
L 162.939242 188.650213 
L 165.172838 188.650213 
L 165.172838 185.504681 
L 172.511794 185.504681 
L 172.511794 182.359149 
L 172.830879 182.359149 
L 172.830879 179.213617 
L 177.93624 179.213617 
L 177.93624 176.068085 
L 187.827877 176.068085 
L 187.827877 172.922553 
L 188.785132 172.922553 
L 188.785132 169.777021 
L 189.423302 169.777021 
L 189.423302 166.631489 
L 190.380558 166.631489 
L 190.380558 160.340426 
L 196.443174 160.340426 
L 196.443174 157.194894 
L 201.86762 157.194894 
L 201.86762 154.049362 
L 202.824875 154.049362 
L 202.824875 150.90383 
L 208.249321 150.90383 
L 208.249321 147.758298 
L 213.673767 147.758298 
L 213.673767 144.612766 
L 228.35168 144.612766 
L 228.35168 141.467234 
L 230.90436 141.467234 
L 230.90436 135.17617 
L 234.414296 135.17617 
L 234.414296 132.030638 
L 235.371551 132.030638 
L 235.371551 128.885106 
L 243.029593 128.885106 
L 243.029593 125.739574 
L 251.644889 125.739574 
L 251.644889 122.594043 
L 251.963974 122.594043 
L 251.963974 119.448511 
L 256.75025 119.448511 
L 256.75025 116.302979 
L 261.855611 116.302979 
L 261.855611 113.157447 
L 268.556397 113.157447 
L 268.556397 110.011915 
L 278.767119 110.011915 
L 278.767119 106.866383 
L 300.783989 106.866383 
L 300.783989 103.720851 
L 309.71837 103.720851 
L 309.71837 100.575319 
L 322.481773 100.575319 
L 322.481773 97.429787 
L 326.948964 97.429787 
L 326.948964 94.284255 
L 341.307791 94.284255 
L 341.307791 91.138723 
L 349.284918 91.138723 
L 349.284918 87.993191 
L 351.518513 87.993191 
L 351.518513 84.84766 
L 360.452895 84.84766 
L 360.452895 81.702128 
L 368.110936 81.702128 
L 368.110936 78.556596 
L 389.489635 78.556596 
L 389.489635 75.411064 
L 426.822588 75.411064 
L 426.822588 72.265532 
L 503.722087 72.265532 
L 503.722087 69.12 
L 518.4 69.12 
L 518.4 69.12 
" clip-path="url(#p539b1b50b3)" style="fill: none; stroke: #d62728; stroke-width: 1.5; stroke-linecap: round"/>
   </g>
   <g id="line2d_5">
    <path d="M 72 512.64 
L 518.4 69.12 
" clip-path="url(#p539b1b50b3)" style="fill: none; stroke-dasharray: 5.55,2.4; stroke-dashoffset: 0; stroke: #808080; stroke-width: 1.5"/>
   </g>
   <g id="patch_3">
    <path d="M 72 512.64 
L 72 69.12 
" style="fill: none; stroke: #262626; stroke-width: 0.8; stroke-linejoin: miter; stroke-linecap: square"/>
   </g>
   <g id="patch_4">
    <path d="M 518.4 512.64 
L 518.4 69.12 
" style="fill: none; stroke: #262626; stroke-width: 0.8; stroke-linejoin: miter; stroke-linecap: square"/>
   </g>
   <g id="patch_5">
    <path d="M 72 512.64 
L 518.4 512.64 
" style="fill: none; stroke: #262626; stroke-width: 0.8; stroke-linejoin: miter; stroke-linecap: square"/>
   </g>
   <g id="patch_6">
    <path d="M 72 69.12 
L 518.4 69.12 
" style="fill: none; stroke: #262626; stroke-width: 0.8; stroke-linejoin: miter; stroke-linecap: square"/>
   </g>
   <g id="text_15">
    <!-- ROC Curve Comparison of Logistic Regression Models Predicting Incident Diabetes -->
    <g style="fill: #262626" transform="translate(47.990625 63.12) scale(0.12 -0.12)">
     <defs>
      <path id="DejaVuSans-4f" d="M 2522 4238 
Q 1834 4238 1429 3725 
Q 1025 3213 1025 2328 
Q 1025 1447 1429 934 
Q 1834 422 2522 422 
Q 3209 422 3611 934 
Q 4013 1447 4013 2328 
Q 4013 3213 3611 3725 
Q 3209 4238 2522 4238 
z
M 2522 4750 
Q 3503 4750 4090 4092 
Q 4678 3434 4678 2328 
Q 4678 1225 4090 567 
Q 3503 -91 2522 -91 
Q 1538 -91 948 565 
Q 359 1222 359 2328 
Q 359 3434 948 4092 
Q 1538 4750 2522 4750 
z
" transform="scale(0.015625)"/>
      <path id="DejaVuSans-43" d="M 4122 4306 
L 4122 3641 
Q 3803 3938 3442 4084 
Q 3081 4231 2675 4231 
Q 1875 4231 1450 3742 
Q 1025 3253 1025 2328 
Q 1025 1406 1450 917 
Q 1875 428 2675 428 
Q 3081 428 3442 575 
Q 3803 722 4122 1019 
L 4122 359 
Q 3791 134 3420 21 
Q 3050 -91 2638 -91 
Q 1578 -91 968 557 
Q 359 1206 359 2328 
Q 359 3453 968 4101 
Q 1578 4750 2638 4750 
Q 3056 4750 3426 4639 
Q 3797 4528 4122 4306 
z
" transform="scale(0.015625)"/>
      <path id="DejaVuSans-6d" d="M 3328 2828 
Q 3544 3216 3844 3400 
Q 4144 3584 4550 3584 
Q 5097 3584 5394 3201 
Q 5691 2819 5691 2113 
L 5691 0 
L 5113 0 
L 5113 2094 
Q 5113 2597 4934 2840 
Q 4756 3084 4391 3084 
Q 3944 3084 3684 2787 
Q 3425 2491 3425 1978 
L 3425 0 
L 2847 0 
L 2847 2094 
Q 2847 2600 2669 2842 
Q 2491 3084 2119 3084 
Q 1678 3084 1418 2786 
Q 1159 2488 1159 1978 
L 1159 0 
L 581 0 
L 581 3500 
L 1159 3500 
L 1159 2956 
Q 1356 3278 1631 3431 
Q 1906 3584 2284 3584 
Q 2666 3584 2933 3390 
Q 3200 3197 3328 2828 
z
" transform="scale(0.015625)"/>
      <path id="DejaVuSans-70" d="M 1159 525 
L 1159 -1331 
L 581 -1331 
L 581 3500 
L 1159 3500 
L 1159 2969 
Q 1341 3281 1617 3432 
Q 1894 3584 2278 3584 
Q 2916 3584 3314 3078 
Q 3713 2572 3713 1747 
Q 3713 922 3314 415 
Q 2916 -91 2278 -91 
Q 1894 -91 1617 61 
Q 1341 213 1159 525 
z
M 3116 1747 
Q 3116 2381 2855 2742 
Q 2594 3103 2138 3103 
Q 1681 3103 1420 2742 
Q 1159 2381 1159 1747 
Q 1159 1113 1420 752 
Q 1681 391 2138 391 
Q 2594 391 2855 752 
Q 3116 1113 3116 1747 
z
" transform="scale(0.015625)"/>
      <path id="DejaVuSans-6e" d="M 3513 2113 
L 3513 0 
L 2938 0 
L 2938 2094 
Q 2938 2591 2744 2837 
Q 2550 3084 2163 3084 
Q 1697 3084 1428 2787 
Q 1159 2491 1159 1978 
L 1159 0 
L 581 0 
L 581 3500 
L 1159 3500 
L 1159 2956 
Q 1366 3272 1645 3428 
Q 1925 3584 2291 3584 
Q 2894 3584 3203 3211 
Q 3513 2838 3513 2113 
z
" transform="scale(0.015625)"/>
      <path id="DejaVuSans-66" d="M 2375 4863 
L 2375 4384 
L 1825 4384 
Q 1516 4384 1395 4259 
Q 1275 4134 1275 3809 
L 1275 3500 
L 2222 3500 
L 2222 3053 
L 1275 3053 
L 1275 0 
L 697 0 
L 697 3053 
L 147 3053 
L 147 3500 
L 697 3500 
L 697 3744 
Q 697 4328 969 4595 
Q 1241 4863 1831 4863 
L 2375 4863 
z
" transform="scale(0.015625)"/>
      <path id="DejaVuSans-4c" d="M 628 4666 
L 1259 4666 
L 1259 531 
L 3531 531 
L 3531 0 
L 628 0 
L 628 4666 
z
" transform="scale(0.015625)"/>
      <path id="DejaVuSans-67" d="M 2906 1791 
Q 2906 2416 2648 2759 
Q 2391 3103 1925 3103 
Q 1463 3103 1205 2759 
Q 947 2416 947 1791 
Q 947 1169 1205 825 
Q 1463 481 1925 481 
Q 2391 481 2648 825 
Q 2906 1169 2906 1791 
z
M 3481 434 
Q 3481 -459 3084 -895 
Q 2688 -1331 1869 -1331 
Q 1566 -1331 1297 -1286 
Q 1028 -1241 775 -1147 
L 775 -588 
Q 1028 -725 1275 -790 
Q 1522 -856 1778 -856 
Q 2344 -856 2625 -561 
Q 2906 -266 2906 331 
L 2906 616 
Q 2728 306 2450 153 
Q 2172 0 1784 0 
Q 1141 0 747 490 
Q 353 981 353 1791 
Q 353 2603 747 3093 
Q 1141 3584 1784 3584 
Q 2172 3584 2450 3431 
Q 2728 3278 2906 2969 
L 2906 3500 
L 3481 3500 
L 3481 434 
z
" transform="scale(0.015625)"/>
      <path id="DejaVuSans-63" d="M 3122 3366 
L 3122 2828 
Q 2878 2963 2633 3030 
Q 2388 3097 2138 3097 
Q 1578 3097 1268 2742 
Q 959 2388 959 1747 
Q 959 1106 1268 751 
Q 1578 397 2138 397 
Q 2388 397 2633 464 
Q 2878 531 3122 666 
L 3122 134 
Q 2881 22 2623 -34 
Q 2366 -91 2075 -91 
Q 1284 -91 818 406 
Q 353 903 353 1747 
Q 353 2603 823 3093 
Q 1294 3584 2113 3584 
Q 2378 3584 2631 3529 
Q 2884 3475 3122 3366 
z
" transform="scale(0.015625)"/>
      <path id="DejaVuSans-4d" d="M 628 4666 
L 1569 4666 
L 2759 1491 
L 3956 4666 
L 4897 4666 
L 4897 0 
L 4281 0 
L 4281 4097 
L 3078 897 
L 2444 897 
L 1241 4097 
L 1241 0 
L 628 0 
L 628 4666 
z
" transform="scale(0.015625)"/>
      <path id="DejaVuSans-64" d="M 2906 2969 
L 2906 4863 
L 3481 4863 
L 3481 0 
L 2906 0 
L 2906 525 
Q 2725 213 2448 61 
Q 2172 -91 1784 -91 
Q 1150 -91 751 415 
Q 353 922 353 1747 
Q 353 2572 751 3078 
Q 1150 3584 1784 3584 
Q 2172 3584 2448 3432 
Q 2725 3281 2906 2969 
z
M 947 1747 
Q 947 1113 1208 752 
Q 1469 391 1925 391 
Q 2381 391 2643 752 
Q 2906 1113 2906 1747 
Q 2906 2381 2643 2742 
Q 2381 3103 1925 3103 
Q 1469 3103 1208 2742 
Q 947 2381 947 1747 
z
" transform="scale(0.015625)"/>
      <path id="DejaVuSans-49" d="M 628 4666 
L 1259 4666 
L 1259 0 
L 628 0 
L 628 4666 
z
" transform="scale(0.015625)"/>
      <path id="DejaVuSans-44" d="M 1259 4147 
L 1259 519 
L 2022 519 
Q 2988 519 3436 956 
Q 3884 1394 3884 2338 
Q 3884 3275 3436 3711 
Q 2988 4147 2022 4147 
L 1259 4147 
z
M 628 4666 
L 1925 4666 
Q 3281 4666 3915 4102 
Q 4550 3538 4550 2338 
Q 4550 1131 3912 565 
Q 3275 0 1925 0 
L 628 0 
L 628 4666 
z
" transform="scale(0.015625)"/>
      <path id="DejaVuSans-62" d="M 3116 1747 
Q 3116 2381 2855 2742 
Q 2594 3103 2138 3103 
Q 1681 3103 1420 2742 
Q 1159 2381 1159 1747 
Q 1159 1113 1420 752 
Q 1681 391 2138 391 
Q 2594 391 2855 752 
Q 3116 1113 3116 1747 
z
M 1159 2969 
Q 1341 3281 1617 3432 
Q 1894 3584 2278 3584 
Q 2916 3584 3314 3078 
Q 3713 2572 3713 1747 
Q 3713 922 3314 415 
Q 2916 -91 2278 -91 
Q 1894 -91 1617 61 
Q 1341 213 1159 525 
L 1159 0 
L 581 0 
L 581 4863 
L 1159 4863 
L 1159 2969 
z
" transform="scale(0.015625)"/>
     </defs>
     <use xlink:href="#DejaVuSans-52"/>
     <use xlink:href="#DejaVuSans-4f" x="69.482422"/>
     <use xlink:href="#DejaVuSans-43" x="148.193359"/>
     <use xlink:href="#DejaVuSans-20" x="218.017578"/>
     <use xlink:href="#DejaVuSans-43" x="249.804688"/>
     <use xlink:href="#DejaVuSans-75" x="319.628906"/>
     <use xlink:href="#DejaVuSans-72" x="383.007812"/>
     <use xlink:href="#DejaVuSans-76" x="424.121094"/>
     <use xlink:href="#DejaVuSans-65" x="483.300781"/>
     <use xlink:href="#DejaVuSans-20" x="544.824219"/>
     <use xlink:href="#DejaVuSans-43" x="576.611328"/>
     <use xlink:href="#DejaVuSans-6f" x="646.435547"/>
     <use xlink:href="#DejaVuSans-6d" x="707.617188"/>
     <use xlink:href="#DejaVuSans-70" x="805.029297"/>
     <use xlink:href="#DejaVuSans-61" x="868.505859"/>
     <use xlink:href="#DejaVuSans-72" x="929.785156"/>
     <use xlink:href="#DejaVuSans-69" x="970.898438"/>
     <use xlink:href="#DejaVuSans-73" x="998.681641"/>
     <use xlink:href="#DejaVuSans-6f" x="1050.78125"/>
     <use xlink:href="#DejaVuSans-6e" x="1111.962891"/>
     <use xlink:href="#DejaVuSans-20" x="1175.341797"/>
     <use xlink:href="#DejaVuSans-6f" x="1207.128906"/>
     <use xlink:href="#DejaVuSans-66" x="1268.310547"/>
     <use xlink:href="#DejaVuSans-20" x="1303.515625"/>
     <use xlink:href="#DejaVuSans-4c" x="1335.302734"/>
     <use xlink:href="#DejaVuSans-6f" x="1389.265625"/>
     <use xlink:href="#DejaVuSans-67" x="1450.447266"/>
     <use xlink:href="#DejaVuSans-69" x="1513.923828"/>
     <use xlink:href="#DejaVuSans-73" x="1541.707031"/>
     <use xlink:href="#DejaVuSans-74" x="1593.806641"/>
     <use xlink:href="#DejaVuSans-69" x="1633.015625"/>
     <use xlink:href="#DejaVuSans-63" x="1660.798828"/>
     <use xlink:href="#DejaVuSans-20" x="1715.779297"/>
     <use xlink:href="#DejaVuSans-52" x="1747.566406"/>
     <use xlink:href="#DejaVuSans-65" x="1812.548828"/>
     <use xlink:href="#DejaVuSans-67" x="1874.072266"/>
     <use xlink:href="#DejaVuSans-72" x="1937.548828"/>
     <use xlink:href="#DejaVuSans-65" x="1976.412109"/>
     <use xlink:href="#DejaVuSans-73" x="2037.935547"/>
     <use xlink:href="#DejaVuSans-73" x="2090.035156"/>
     <use xlink:href="#DejaVuSans-69" x="2142.134766"/>
     <use xlink:href="#DejaVuSans-6f" x="2169.917969"/>
     <use xlink:href="#DejaVuSans-6e" x="2231.099609"/>
     <use xlink:href="#DejaVuSans-20" x="2294.478516"/>
     <use xlink:href="#DejaVuSans-4d" x="2326.265625"/>
     <use xlink:href="#DejaVuSans-6f" x="2412.544922"/>
     <use xlink:href="#DejaVuSans-64" x="2473.726562"/>
     <use xlink:href="#DejaVuSans-65" x="2537.203125"/>
     <use xlink:href="#DejaVuSans-6c" x="2598.726562"/>
     <use xlink:href="#DejaVuSans-73" x="2626.509766"/>
     <use xlink:href="#DejaVuSans-20" x="2678.609375"/>
     <use xlink:href="#DejaVuSans-50" x="2710.396484"/>
     <use xlink:href="#DejaVuSans-72" x="2768.949219"/>
     <use xlink:href="#DejaVuSans-65" x="2807.8125"/>
     <use xlink:href="#DejaVuSans-64" x="2869.335938"/>
     <use xlink:href="#DejaVuSans-69" x="2932.8125"/>
     <use xlink:href="#DejaVuSans-63" x="2960.595703"/>
     <use xlink:href="#DejaVuSans-74" x="3015.576172"/>
     <use xlink:href="#DejaVuSans-69" x="3054.785156"/>
     <use xlink:href="#DejaVuSans-6e" x="3082.568359"/>
     <use xlink:href="#DejaVuSans-67" x="3145.947266"/>
     <use xlink:href="#DejaVuSans-20" x="3209.423828"/>
     <use xlink:href="#DejaVuSans-49" x="3241.210938"/>
     <use xlink:href="#DejaVuSans-6e" x="3270.703125"/>
     <use xlink:href="#DejaVuSans-63" x="3334.082031"/>
     <use xlink:href="#DejaVuSans-69" x="3389.0625"/>
     <use xlink:href="#DejaVuSans-64" x="3416.845703"/>
     <use xlink:href="#DejaVuSans-65" x="3480.322266"/>
     <use xlink:href="#DejaVuSans-6e" x="3541.845703"/>
     <use xlink:href="#DejaVuSans-74" x="3605.224609"/>
     <use xlink:href="#DejaVuSans-20" x="3644.433594"/>
     <use xlink:href="#DejaVuSans-44" x="3676.220703"/>
     <use xlink:href="#DejaVuSans-69" x="3753.222656"/>
     <use xlink:href="#DejaVuSans-61" x="3781.005859"/>
     <use xlink:href="#DejaVuSans-62" x="3842.285156"/>
     <use xlink:href="#DejaVuSans-65" x="3905.761719"/>
     <use xlink:href="#DejaVuSans-74" x="3967.285156"/>
     <use xlink:href="#DejaVuSans-65" x="4006.494141"/>
     <use xlink:href="#DejaVuSans-73" x="4068.017578"/>
    </g>
   </g>
   <g id="legend_1">
    <g id="patch_7">
     <path d="M 182.414062 507.64 
L 511.4 507.64 
Q 513.4 507.64 513.4 505.64 
L 513.4 447.9275 
Q 513.4 445.9275 511.4 445.9275 
L 182.414062 445.9275 
Q 180.414062 445.9275 180.414062 447.9275 
L 180.414062 505.64 
Q 180.414062 507.64 182.414062 507.64 
z
" style="fill: #ffffff; opacity: 0.8; stroke: #cccccc; stroke-linejoin: miter"/>
    </g>
    <g id="line2d_6">
     <path d="M 184.414062 454.025937 
L 194.414062 454.025937 
L 204.414062 454.025937 
" style="fill: none; stroke: #1f77b4; stroke-width: 1.5; stroke-linecap: round"/>
    </g>
    <g id="text_16">
     <!-- Age+Sex+BMI (AUC = 0.80) -->
     <g style="fill: #262626" transform="translate(212.414062 457.525937) scale(0.1 -0.1)">
      <defs>
       <path id="DejaVuSans-41" d="M 2188 4044 
L 1331 1722 
L 3047 1722 
L 2188 4044 
z
M 1831 4666 
L 2547 4666 
L 4325 0 
L 3669 0 
L 3244 1197 
L 1141 1197 
L 716 0 
L 50 0 
L 1831 4666 
z
" transform="scale(0.015625)"/>
       <path id="DejaVuSans-2b" d="M 2944 4013 
L 2944 2272 
L 4684 2272 
L 4684 1741 
L 2944 1741 
L 2944 0 
L 2419 0 
L 2419 1741 
L 678 1741 
L 678 2272 
L 2419 2272 
L 2419 4013 
L 2944 4013 
z
" transform="scale(0.015625)"/>
       <path id="DejaVuSans-53" d="M 3425 4513 
L 3425 3897 
Q 3066 4069 2747 4153 
Q 2428 4238 2131 4238 
Q 1616 4238 1336 4038 
Q 1056 3838 1056 3469 
Q 1056 3159 1242 3001 
Q 1428 2844 1947 2747 
L 2328 2669 
Q 3034 2534 3370 2195 
Q 3706 1856 3706 1288 
Q 3706 609 3251 259 
Q 2797 -91 1919 -91 
Q 1588 -91 1214 -16 
Q 841 59 441 206 
L 441 856 
Q 825 641 1194 531 
Q 1563 422 1919 422 
Q 2459 422 2753 634 
Q 3047 847 3047 1241 
Q 3047 1584 2836 1778 
Q 2625 1972 2144 2069 
L 1759 2144 
Q 1053 2284 737 2584 
Q 422 2884 422 3419 
Q 422 4038 858 4394 
Q 1294 4750 2059 4750 
Q 2388 4750 2728 4690 
Q 3069 4631 3425 4513 
z
" transform="scale(0.015625)"/>
       <path id="DejaVuSans-78" d="M 3513 3500 
L 2247 1797 
L 3578 0 
L 2900 0 
L 1881 1375 
L 863 0 
L 184 0 
L 1544 1831 
L 300 3500 
L 978 3500 
L 1906 2253 
L 2834 3500 
L 3513 3500 
z
" transform="scale(0.015625)"/>
       <path id="DejaVuSans-42" d="M 1259 2228 
L 1259 519 
L 2272 519 
Q 2781 519 3026 730 
Q 3272 941 3272 1375 
Q 3272 1813 3026 2020 
Q 2781 2228 2272 2228 
L 1259 2228 
z
M 1259 4147 
L 1259 2741 
L 2194 2741 
Q 2656 2741 2882 2914 
Q 3109 3088 3109 3444 
Q 3109 3797 2882 3972 
Q 2656 4147 2194 4147 
L 1259 4147 
z
M 628 4666 
L 2241 4666 
Q 2963 4666 3353 4366 
Q 3744 4066 3744 3513 
Q 3744 3084 3544 2831 
Q 3344 2578 2956 2516 
Q 3422 2416 3680 2098 
Q 3938 1781 3938 1306 
Q 3938 681 3513 340 
Q 3088 0 2303 0 
L 628 0 
L 628 4666 
z
" transform="scale(0.015625)"/>
       <path id="DejaVuSans-28" d="M 1984 4856 
Q 1566 4138 1362 3434 
Q 1159 2731 1159 2009 
Q 1159 1288 1364 580 
Q 1569 -128 1984 -844 
L 1484 -844 
Q 1016 -109 783 600 
Q 550 1309 550 2009 
Q 550 2706 781 3412 
Q 1013 4119 1484 4856 
L 1984 4856 
z
" transform="scale(0.015625)"/>
       <path id="DejaVuSans-55" d="M 556 4666 
L 1191 4666 
L 1191 1831 
Q 1191 1081 1462 751 
Q 1734 422 2344 422 
Q 2950 422 3222 751 
Q 3494 1081 3494 1831 
L 3494 4666 
L 4128 4666 
L 4128 1753 
Q 4128 841 3676 375 
Q 3225 -91 2344 -91 
Q 1459 -91 1007 375 
Q 556 841 556 1753 
L 556 4666 
z
" transform="scale(0.015625)"/>
       <path id="DejaVuSans-3d" d="M 678 2906 
L 4684 2906 
L 4684 2381 
L 678 2381 
L 678 2906 
z
M 678 1631 
L 4684 1631 
L 4684 1100 
L 678 1100 
L 678 1631 
z
" transform="scale(0.015625)"/>
       <path id="DejaVuSans-29" d="M 513 4856 
L 1013 4856 
Q 1481 4119 1714 3412 
Q 1947 2706 1947 2009 
Q 1947 1309 1714 600 
Q 1481 -109 1013 -844 
L 513 -844 
Q 928 -128 1133 580 
Q 1338 1288 1338 2009 
Q 1338 2731 1133 3434 
Q 928 4138 513 4856 
z
" transform="scale(0.015625)"/>
      </defs>
      <use xlink:href="#DejaVuSans-41"/>
      <use xlink:href="#DejaVuSans-67" x="68.408203"/>
      <use xlink:href="#DejaVuSans-65" x="131.884766"/>
      <use xlink:href="#DejaVuSans-2b" x="193.408203"/>
      <use xlink:href="#DejaVuSans-53" x="277.197266"/>
      <use xlink:href="#DejaVuSans-65" x="340.673828"/>
      <use xlink:href="#DejaVuSans-78" x="400.447266"/>
      <use xlink:href="#DejaVuSans-2b" x="459.626953"/>
      <use xlink:href="#DejaVuSans-42" x="543.416016"/>
      <use xlink:href="#DejaVuSans-4d" x="612.019531"/>
      <use xlink:href="#DejaVuSans-49" x="698.298828"/>
      <use xlink:href="#DejaVuSans-20" x="727.791016"/>
      <use xlink:href="#DejaVuSans-28" x="759.578125"/>
      <use xlink:href="#DejaVuSans-41" x="798.591797"/>
      <use xlink:href="#DejaVuSans-55" x="867"/>
      <use xlink:href="#DejaVuSans-43" x="940.193359"/>
      <use xlink:href="#DejaVuSans-20" x="1010.017578"/>
      <use xlink:href="#DejaVuSans-3d" x="1041.804688"/>
      <use xlink:href="#DejaVuSans-20" x="1125.59375"/>
      <use xlink:href="#DejaVuSans-30" x="1157.380859"/>
      <use xlink:href="#DejaVuSans-2e" x="1221.003906"/>
      <use xlink:href="#DejaVuSans-38" x="1252.791016"/>
      <use xlink:href="#DejaVuSans-30" x="1316.414062"/>
      <use xlink:href="#DejaVuSans-29" x="1380.037109"/>
     </g>
    </g>
    <g id="line2d_7">
     <path d="M 184.414062 468.704063 
L 194.414062 468.704063 
L 204.414062 468.704063 
" style="fill: none; stroke: #ff7f0e; stroke-width: 1.5; stroke-linecap: round"/>
    </g>
    <g id="text_17">
     <!-- Logistic Regression [36 features] (AUC = 0.83) -->
     <g style="fill: #262626" transform="translate(212.414062 472.204063) scale(0.1 -0.1)">
      <defs>
       <path id="DejaVuSans-5b" d="M 550 4863 
L 1875 4863 
L 1875 4416 
L 1125 4416 
L 1125 -397 
L 1875 -397 
L 1875 -844 
L 550 -844 
L 550 4863 
z
" transform="scale(0.015625)"/>
       <path id="DejaVuSans-33" d="M 2597 2516 
Q 3050 2419 3304 2112 
Q 3559 1806 3559 1356 
Q 3559 666 3084 287 
Q 2609 -91 1734 -91 
Q 1441 -91 1130 -33 
Q 819 25 488 141 
L 488 750 
Q 750 597 1062 519 
Q 1375 441 1716 441 
Q 2309 441 2620 675 
Q 2931 909 2931 1356 
Q 2931 1769 2642 2001 
Q 2353 2234 1838 2234 
L 1294 2234 
L 1294 2753 
L 1863 2753 
Q 2328 2753 2575 2939 
Q 2822 3125 2822 3475 
Q 2822 3834 2567 4026 
Q 2313 4219 1838 4219 
Q 1578 4219 1281 4162 
Q 984 4106 628 3988 
L 628 4550 
Q 988 4650 1302 4700 
Q 1616 4750 1894 4750 
Q 2613 4750 3031 4423 
Q 3450 4097 3450 3541 
Q 3450 3153 3228 2886 
Q 3006 2619 2597 2516 
z
" transform="scale(0.015625)"/>
       <path id="DejaVuSans-5d" d="M 1947 4863 
L 1947 -844 
L 622 -844 
L 622 -397 
L 1369 -397 
L 1369 4416 
L 622 4416 
L 622 4863 
L 1947 4863 
z
" transform="scale(0.015625)"/>
      </defs>
      <use xlink:href="#DejaVuSans-4c"/>
      <use xlink:href="#DejaVuSans-6f" x="53.962891"/>
      <use xlink:href="#DejaVuSans-67" x="115.144531"/>
      <use xlink:href="#DejaVuSans-69" x="178.621094"/>
      <use xlink:href="#DejaVuSans-73" x="206.404297"/>
      <use xlink:href="#DejaVuSans-74" x="258.503906"/>
      <use xlink:href="#DejaVuSans-69" x="297.712891"/>
      <use xlink:href="#DejaVuSans-63" x="325.496094"/>
      <use xlink:href="#DejaVuSans-20" x="380.476562"/>
      <use xlink:href="#DejaVuSans-52" x="412.263672"/>
      <use xlink:href="#DejaVuSans-65" x="477.246094"/>
      <use xlink:href="#DejaVuSans-67" x="538.769531"/>
      <use xlink:href="#DejaVuSans-72" x="602.246094"/>
      <use xlink:href="#DejaVuSans-65" x="641.109375"/>
      <use xlink:href="#DejaVuSans-73" x="702.632812"/>
      <use xlink:href="#DejaVuSans-73" x="754.732422"/>
      <use xlink:href="#DejaVuSans-69" x="806.832031"/>
      <use xlink:href="#DejaVuSans-6f" x="834.615234"/>
      <use xlink:href="#DejaVuSans-6e" x="895.796875"/>
      <use xlink:href="#DejaVuSans-20" x="959.175781"/>
      <use xlink:href="#DejaVuSans-5b" x="990.962891"/>
      <use xlink:href="#DejaVuSans-33" x="1029.976562"/>
      <use xlink:href="#DejaVuSans-36" x="1093.599609"/>
      <use xlink:href="#DejaVuSans-20" x="1157.222656"/>
      <use xlink:href="#DejaVuSans-66" x="1189.009766"/>
      <use xlink:href="#DejaVuSans-65" x="1224.214844"/>
      <use xlink:href="#DejaVuSans-61" x="1285.738281"/>
      <use xlink:href="#DejaVuSans-74" x="1347.017578"/>
      <use xlink:href="#DejaVuSans-75" x="1386.226562"/>
      <use xlink:href="#DejaVuSans-72" x="1449.605469"/>
      <use xlink:href="#DejaVuSans-65" x="1488.46875"/>
      <use xlink:href="#DejaVuSans-73" x="1549.992188"/>
      <use xlink:href="#DejaVuSans-5d" x="1602.091797"/>
      <use xlink:href="#DejaVuSans-20" x="1641.105469"/>
      <use xlink:href="#DejaVuSans-28" x="1672.892578"/>
      <use xlink:href="#DejaVuSans-41" x="1711.90625"/>
      <use xlink:href="#DejaVuSans-55" x="1780.314453"/>
      <use xlink:href="#DejaVuSans-43" x="1853.507812"/>
      <use xlink:href="#DejaVuSans-20" x="1923.332031"/>
      <use xlink:href="#DejaVuSans-3d" x="1955.119141"/>
      <use xlink:href="#DejaVuSans-20" x="2038.908203"/>
      <use xlink:href="#DejaVuSans-30" x="2070.695312"/>
      <use xlink:href="#DejaVuSans-2e" x="2134.318359"/>
      <use xlink:href="#DejaVuSans-38" x="2166.105469"/>
      <use xlink:href="#DejaVuSans-33" x="2229.728516"/>
      <use xlink:href="#DejaVuSans-29" x="2293.351562"/>
     </g>
    </g>
    <g id="line2d_8">
     <path d="M 184.414062 483.382187 
L 194.414062 483.382187 
L 204.414062 483.382187 
" style="fill: none; stroke: #2ca02c; stroke-width: 1.5; stroke-linecap: round"/>
    </g>
    <g id="text_18">
     <!-- Streamlined Logistic Regression [22 features] (AUC = 0.83) -->
     <g style="fill: #262626" transform="translate(212.414062 486.882187) scale(0.1 -0.1)">
      <use xlink:href="#DejaVuSans-53"/>
      <use xlink:href="#DejaVuSans-74" x="63.476562"/>
      <use xlink:href="#DejaVuSans-72" x="102.685547"/>
      <use xlink:href="#DejaVuSans-65" x="141.548828"/>
      <use xlink:href="#DejaVuSans-61" x="203.072266"/>
      <use xlink:href="#DejaVuSans-6d" x="264.351562"/>
      <use xlink:href="#DejaVuSans-6c" x="361.763672"/>
      <use xlink:href="#DejaVuSans-69" x="389.546875"/>
      <use xlink:href="#DejaVuSans-6e" x="417.330078"/>
      <use xlink:href="#DejaVuSans-65" x="480.708984"/>
      <use xlink:href="#DejaVuSans-64" x="542.232422"/>
      <use xlink:href="#DejaVuSans-20" x="605.708984"/>
      <use xlink:href="#DejaVuSans-4c" x="637.496094"/>
      <use xlink:href="#DejaVuSans-6f" x="691.458984"/>
      <use xlink:href="#DejaVuSans-67" x="752.640625"/>
      <use xlink:href="#DejaVuSans-69" x="816.117188"/>
      <use xlink:href="#DejaVuSans-73" x="843.900391"/>
      <use xlink:href="#DejaVuSans-74" x="896"/>
      <use xlink:href="#DejaVuSans-69" x="935.208984"/>
      <use xlink:href="#DejaVuSans-63" x="962.992188"/>
      <use xlink:href="#DejaVuSans-20" x="1017.972656"/>
      <use xlink:href="#DejaVuSans-52" x="1049.759766"/>
      <use xlink:href="#DejaVuSans-65" x="1114.742188"/>
      <use xlink:href="#DejaVuSans-67" x="1176.265625"/>
      <use xlink:href="#DejaVuSans-72" x="1239.742188"/>
      <use xlink:href="#DejaVuSans-65" x="1278.605469"/>
      <use xlink:href="#DejaVuSans-73" x="1340.128906"/>
      <use xlink:href="#DejaVuSans-73" x="1392.228516"/>
      <use xlink:href="#DejaVuSans-69" x="1444.328125"/>
      <use xlink:href="#DejaVuSans-6f" x="1472.111328"/>
      <use xlink:href="#DejaVuSans-6e" x="1533.292969"/>
      <use xlink:href="#DejaVuSans-20" x="1596.671875"/>
      <use xlink:href="#DejaVuSans-5b" x="1628.458984"/>
      <use xlink:href="#DejaVuSans-32" x="1667.472656"/>
      <use xlink:href="#DejaVuSans-32" x="1731.095703"/>
      <use xlink:href="#DejaVuSans-20" x="1794.71875"/>
      <use xlink:href="#DejaVuSans-66" x="1826.505859"/>
      <use xlink:href="#DejaVuSans-65" x="1861.710938"/>
      <use xlink:href="#DejaVuSans-61" x="1923.234375"/>
      <use xlink:href="#DejaVuSans-74" x="1984.513672"/>
      <use xlink:href="#DejaVuSans-75" x="2023.722656"/>
      <use xlink:href="#DejaVuSans-72" x="2087.101562"/>
      <use xlink:href="#DejaVuSans-65" x="2125.964844"/>
      <use xlink:href="#DejaVuSans-73" x="2187.488281"/>
      <use xlink:href="#DejaVuSans-5d" x="2239.587891"/>
      <use xlink:href="#DejaVuSans-20" x="2278.601562"/>
      <use xlink:href="#DejaVuSans-28" x="2310.388672"/>
      <use xlink:href="#DejaVuSans-41" x="2349.402344"/>
      <use xlink:href="#DejaVuSans-55" x="2417.810547"/>
      <use xlink:href="#DejaVuSans-43" x="2491.003906"/>
      <use xlink:href="#DejaVuSans-20" x="2560.828125"/>
      <use xlink:href="#DejaVuSans-3d" x="2592.615234"/>
      <use xlink:href="#DejaVuSans-20" x="2676.404297"/>
      <use xlink:href="#DejaVuSans-30" x="2708.191406"/>
      <use xlink:href="#DejaVuSans-2e" x="2771.814453"/>
      <use xlink:href="#DejaVuSans-38" x="2803.601562"/>
      <use xlink:href="#DejaVuSans-33" x="2867.224609"/>
      <use xlink:href="#DejaVuSans-29" x="2930.847656"/>
     </g>
    </g>
    <g id="line2d_9">
     <path d="M 184.414062 498.060313 
L 194.414062 498.060313 
L 204.414062 498.060313 
" style="fill: none; stroke: #d62728; stroke-width: 1.5; stroke-linecap: round"/>
    </g>
    <g id="text_19">
     <!-- Optimized Logistic Regression [9 features] (AUC = 0.82) -->
     <g style="fill: #262626" transform="translate(212.414062 501.560313) scale(0.1 -0.1)">
      <defs>
       <path id="DejaVuSans-7a" d="M 353 3500 
L 3084 3500 
L 3084 2975 
L 922 459 
L 3084 459 
L 3084 0 
L 275 0 
L 275 525 
L 2438 3041 
L 353 3041 
L 353 3500 
z
" transform="scale(0.015625)"/>
       <path id="DejaVuSans-39" d="M 703 97 
L 703 672 
Q 941 559 1184 500 
Q 1428 441 1663 441 
Q 2288 441 2617 861 
Q 2947 1281 2994 2138 
Q 2813 1869 2534 1725 
Q 2256 1581 1919 1581 
Q 1219 1581 811 2004 
Q 403 2428 403 3163 
Q 403 3881 828 4315 
Q 1253 4750 1959 4750 
Q 2769 4750 3195 4129 
Q 3622 3509 3622 2328 
Q 3622 1225 3098 567 
Q 2575 -91 1691 -91 
Q 1453 -91 1209 -44 
Q 966 3 703 97 
z
M 1959 2075 
Q 2384 2075 2632 2365 
Q 2881 2656 2881 3163 
Q 2881 3666 2632 3958 
Q 2384 4250 1959 4250 
Q 1534 4250 1286 3958 
Q 1038 3666 1038 3163 
Q 1038 2656 1286 2365 
Q 1534 2075 1959 2075 
z
" transform="scale(0.015625)"/>
      </defs>
      <use xlink:href="#DejaVuSans-4f"/>
      <use xlink:href="#DejaVuSans-70" x="78.710938"/>
      <use xlink:href="#DejaVuSans-74" x="142.1875"/>
      <use xlink:href="#DejaVuSans-69" x="181.396484"/>
      <use xlink:href="#DejaVuSans-6d" x="209.179688"/>
      <use xlink:href="#DejaVuSans-69" x="306.591797"/>
      <use xlink:href="#DejaVuSans-7a" x="334.375"/>
      <use xlink:href="#DejaVuSans-65" x="386.865234"/>
      <use xlink:href="#DejaVuSans-64" x="448.388672"/>
      <use xlink:href="#DejaVuSans-20" x="511.865234"/>
      <use xlink:href="#DejaVuSans-4c" x="543.652344"/>
      <use xlink:href="#DejaVuSans-6f" x="597.615234"/>
      <use xlink:href="#DejaVuSans-67" x="658.796875"/>
      <use xlink:href="#DejaVuSans-69" x="722.273438"/>
      <use xlink:href="#DejaVuSans-73" x="750.056641"/>
      <use xlink:href="#DejaVuSans-74" x="802.15625"/>
      <use xlink:href="#DejaVuSans-69" x="841.365234"/>
      <use xlink:href="#DejaVuSans-63" x="869.148438"/>
      <use xlink:href="#DejaVuSans-20" x="924.128906"/>
      <use xlink:href="#DejaVuSans-52" x="955.916016"/>
      <use xlink:href="#DejaVuSans-65" x="1020.898438"/>
      <use xlink:href="#DejaVuSans-67" x="1082.421875"/>
      <use xlink:href="#DejaVuSans-72" x="1145.898438"/>
      <use xlink:href="#DejaVuSans-65" x="1184.761719"/>
      <use xlink:href="#DejaVuSans-73" x="1246.285156"/>
      <use xlink:href="#DejaVuSans-73" x="1298.384766"/>
      <use xlink:href="#DejaVuSans-69" x="1350.484375"/>
      <use xlink:href="#DejaVuSans-6f" x="1378.267578"/>
      <use xlink:href="#DejaVuSans-6e" x="1439.449219"/>
      <use xlink:href="#DejaVuSans-20" x="1502.828125"/>
      <use xlink:href="#DejaVuSans-5b" x="1534.615234"/>
      <use xlink:href="#DejaVuSans-39" x="1573.628906"/>
      <use xlink:href="#DejaVuSans-20" x="1637.251953"/>
      <use xlink:href="#DejaVuSans-66" x="1669.039062"/>
      <use xlink:href="#DejaVuSans-65" x="1704.244141"/>
      <use xlink:href="#DejaVuSans-61" x="1765.767578"/>
      <use xlink:href="#DejaVuSans-74" x="1827.046875"/>
      <use xlink:href="#DejaVuSans-75" x="1866.255859"/>
      <use xlink:href="#DejaVuSans-72" x="1929.634766"/>
      <use xlink:href="#DejaVuSans-65" x="1968.498047"/>
      <use xlink:href="#DejaVuSans-73" x="2030.021484"/>
      <use xlink:href="#DejaVuSans-5d" x="2082.121094"/>
      <use xlink:href="#DejaVuSans-20" x="2121.134766"/>
      <use xlink:href="#DejaVuSans-28" x="2152.921875"/>
      <use xlink:href="#DejaVuSans-41" x="2191.935547"/>
      <use xlink:href="#DejaVuSans-55" x="2260.34375"/>
      <use xlink:href="#DejaVuSans-43" x="2333.537109"/>
      <use xlink:href="#DejaVuSans-20" x="2403.361328"/>
      <use xlink:href="#DejaVuSans-3d" x="2435.148438"/>
      <use xlink:href="#DejaVuSans-20" x="2518.9375"/>
      <use xlink:href="#DejaVuSans-30" x="2550.724609"/>
      <use xlink:href="#DejaVuSans-2e" x="2614.347656"/>
      <use xlink:href="#DejaVuSans-38" x="2646.134766"/>
      <use xlink:href="#DejaVuSans-32" x="2709.757812"/>
      <use xlink:href="#DejaVuSans-29" x="2773.380859"/>
     </g>
    </g>
   </g>
  </g>
 </g>
 <defs>
  <clipPath id="p539b1b50b3">
   <rect x="72" y="69.12" width="446.4" height="443.52"/>
  </clipPath>
 </defs>
</svg>
